<?xml version="1.0" encoding="utf-8"?>
<!-- Generator: Adobe Illustrator 16.0.0, SVG Export Plug-In . SVG Version: 6.00 Build 0)  -->
<!DOCTYPE svg PUBLIC "-//W3C//DTD SVG 1.1//EN" "http://www.w3.org/Graphics/SVG/1.1/DTD/svg11.dtd">
<svg version="1.1" id="Layer_1" xmlns="http://www.w3.org/2000/svg" xmlns:xlink="http://www.w3.org/1999/xlink" x="0px" y="0px"
	 width="600px" height="600px" viewBox="0 0 600 600" enable-background="new 0 0 600 600" xml:space="preserve">
<g>
	<path fill="#F7DF1E" d="M10,10h580v580H10V10z"/>
	<path d="M162.503,494.688l44.386-26.858c8.563,15.182,16.352,28.028,35.037,28.028c17.909,0,29.201-7.006,29.201-34.258V276.276
		h54.505V462.37c0,56.453-33.091,82.149-81.37,82.149c-43.603,0-68.913-22.582-81.759-49.836"/>
	<path d="M355.238,488.85l44.379-25.695c11.684,19.078,26.867,33.093,53.73,33.093c22.582,0,36.986-11.29,36.986-26.864
		c0-18.688-14.796-25.307-39.715-36.203L437,427.335c-39.326-16.739-65.411-37.763-65.411-82.146
		c0-40.881,31.146-72.029,79.813-72.029c34.65,0,59.565,12.071,77.475,43.607L486.44,344.02
		c-9.347-16.74-19.466-23.358-35.038-23.358c-15.963,0-26.086,10.123-26.086,23.358c0,16.353,10.123,22.973,33.479,33.097
		l13.625,5.839c46.33,19.857,72.418,40.1,72.418,85.648c0,49.062-38.544,75.92-90.323,75.92
		C403.904,544.523,371.199,520.389,355.238,488.85"/>
</g>
</svg>
